<svg xmlns="http://www.w3.org/2000/svg" xmlns:xlink="http://www.w3.org/1999/xlink" viewBox="0 0 83.59 83.59"><defs><style>.cls-1{fill:#589b6b;}.cls-2{fill:#fff;}</style><symbol id="module--moviePlay" data-name="module--moviePlay" viewBox="0 0 83.59 83.59"><circle class="cls-1" cx="41.79" cy="41.79" r="39.79"/><path class="cls-2" d="M41.79,4A37.8,37.8,0,1,1,4,41.79,37.79,37.79,0,0,1,41.79,4m0-4a41.8,41.8,0,1,0,41.8,41.79A41.84,41.84,0,0,0,41.79,0Z"/><path class="cls-2" d="M34.62,35c0-1.37,1-1.93,2.15-1.24l3.71,2.14,4.32,2.49,3.7,2.14a1.31,1.31,0,0,1,0,2.49l-3.7,2.14-4.32,2.49-3.71,2.14c-1.18.69-2.15.13-2.15-1.25V35Z"/></symbol></defs><g id="レイヤー_2" data-name="レイヤー 2"><g id="レイヤー_4" data-name="レイヤー 4"><use width="83.59" height="83.59" xlink:href="#module--moviePlay"/></g></g></svg>